<svg width="20" height="20" viewBox="0 0 20 20" fill="none" xmlns="http://www.w3.org/2000/svg">
<path d="M14.3838 4.88462C14.3838 7.30617 12.4208 9.26923 9.99921 9.26923C7.57766 9.26923 5.6146 7.30617 5.6146 4.88462C5.6146 2.46306 7.57766 0.5 9.99921 0.5C12.4208 0.5 14.3838 2.46306 14.3838 4.88462Z" stroke="white"/>
<path d="M9.99921 19.5C14.3425 19.5 16.8449 18.3797 18.0057 17.6586C18.5488 17.3212 18.8166 16.6999 18.7613 16.0563C18.6859 15.1773 18.3788 14.2994 18.0661 13.6031C17.6555 12.6888 16.7051 12.1923 15.7028 12.1923H4.29558C3.29334 12.1923 2.34293 12.6888 1.93236 13.6031C1.61966 14.2994 1.31254 15.1773 1.2371 16.0563C1.18186 16.6999 1.44958 17.3212 1.99275 17.6586C3.15355 18.3797 5.65591 19.5 9.99921 19.5Z" stroke="white"/>
</svg>
